<?xml version="1.0" encoding="UTF-8"?>
<!DOCTYPE svg PUBLIC "-//W3C//DTD SVG 1.1//EN" "http://www.w3.org/Graphics/SVG/1.1/DTD/svg11.dtd">
<!-- Creator: CorelDRAW -->
<svg xmlns="http://www.w3.org/2000/svg" xml:space="preserve" width="88.1397mm" height="87.7906mm" version="1.1" style="shape-rendering:geometricPrecision; text-rendering:geometricPrecision; image-rendering:optimizeQuality; fill-rule:evenodd; clip-rule:evenodd"
viewBox="0 0 1603.06 1596.71"
 xmlns:xlink="http://www.w3.org/1999/xlink"
 xmlns:xodm="http://www.corel.com/coreldraw/odm/2003">
 <defs>
  <style type="text/css">
   <![CDATA[
    .fil0 {fill:black}
   ]]>
  </style>
 </defs>
 <g id="Layer_x0020_1">
  <metadata id="CorelCorpID_0Corel-Layer"/>
  <path class="fil0" d="M740.03 630.6l0.18 3.82 -0.24 0.42 -2.84 216.13 -185.47 2.74 -0.08 95.14 185.92 1.19c-0.14,213.73 -0.29,427.46 -0.39,641.19l-11.88 1.53c-13.61,1.75 -38.76,-1.6 -65.72,-6.87 -37.77,-7.38 -80.53,-18.7 -98.14,-24.56 -53.32,-17.73 -95.87,-35.18 -135.79,-56.34 -39.95,-21.18 -77.32,-46.09 -120.25,-78.74 -24.8,-18.86 -53.1,-44.24 -79.5,-71.18 -25.17,-25.7 -48.8,-52.97 -66.27,-77.6 -3.83,-5.4 -7.84,-10.88 -11.73,-16.19 -9.65,-13.19 -18.54,-25.33 -28.26,-41.44 -42.65,-70.69 -74.37,-142.26 -94.4,-218.4 -20.02,-76.11 -28.32,-156.65 -24.13,-245.28 9.96,-211 103.35,-400.92 249.02,-537.64 144.27,-135.41 339.85,-218.64 556.44,-218.5 114.06,0.07 219.42,23.24 313.64,64.07 148.57,64.37 269.38,172.6 352.99,303.39 83.57,130.73 130.01,284.07 129.91,438.72 -0.06,99.59 -19.43,199.74 -60.6,294.76 -29.13,67.24 -54.82,114.45 -85.25,157.09 -30.43,42.63 -65.35,80.4 -113.02,128.84 -52.87,53.72 -131,102.75 -215.72,139.86 -86.36,37.82 -179.9,63.39 -260.75,69l-14.49 1c0,-215.83 0.05,-431.66 0.08,-647.48l201.28 -0.75 13.39 -96.15c-13.58,-0.05 -32.6,0.23 -53.61,0.55 -59.07,0.89 -133.48,2.01 -152.36,-3.76l-2.8 -0.85 -3.49 -0.03 0 -1.04 -2.31 -0.71 -1 -8.88c-1.43,-12.77 -2.68,-73 -1.56,-119.54 0.55,-22.75 2.24,-43.03 5.67,-55.45 -2.31,-26.38 4.19,-54.66 15.05,-79.5 12.57,-28.77 31.33,-53.52 49.27,-65.81 42.72,-29.29 71.82,-28.07 106.53,-26.61 15.67,0.66 32.61,1.37 52.64,-1.22l-0.43 -77.6c-36.14,-7.43 -84.29,-8.84 -130.14,-4.31 -46.08,4.55 -89.37,14.99 -114.91,31.18 -30,19.02 -53.82,48.12 -70.08,81 -13.67,27.66 -21.97,57.88 -24.08,86.98l-0.31 23.88zm-100.99 847.12l0.13 -429.99 -185.2 -0.72 -0.83 -295.5 186.18 0.13c0.4,-14.53 0.59,-29.03 0.79,-43.61 1.57,-118.73 3.2,-242.25 109.46,-329.57 109.92,-90.33 251.86,-75.09 404.75,-58.68l23.13 2.48 1.74 265.34 -13.68 0c-25.34,0 -50.2,-0.7 -72.26,-1.31 -22.95,-0.64 -42.72,-1.19 -59.48,-0.7 -69.53,2.04 -85.21,25.98 -82.03,165.25l232.36 0.89 -44.14 294.14 -188.4 1.31 0.1 433.78c28.42,-4.57 60.02,-14.36 91.07,-26.44 49.38,-19.22 97.25,-44.26 129.17,-63.51 33.49,-20.2 64.9,-43.63 93.34,-68.5 31.12,-27.22 58.79,-56.23 81.84,-84.71 53.24,-65.78 98.66,-145.16 126.56,-237.36 24.24,-80.11 35.23,-169.93 26.58,-268.95 -15.22,-174.22 -97.46,-331.91 -222.17,-446.35 -122.67,-112.56 -286.41,-183.26 -467.88,-186.68 -67,-1.26 -137.31,8.49 -204.26,27.47 -66.53,18.86 -129.59,46.84 -182.62,82.18 -50.15,33.42 -95.65,70.6 -135.81,112.79 -40.07,42.1 -74.87,89.23 -103.73,142.65 -19.95,36.93 -36.97,75.96 -50.55,117.69 -13.61,41.83 -23.79,86.36 -30.04,134.19 -12.4,94.99 -3.23,185.14 19.49,266.63 26.71,95.82 72.2,179.7 123.36,245.42 22.47,28.86 50.41,59.18 81.46,87.35 28.23,25.61 58.99,49.43 90.47,68.71 30.98,18.98 68.65,40.66 109.39,58.79 35.59,15.84 73.64,29.04 111.73,35.39z"/>
 </g>
</svg>
